<?xml version="1.0" encoding="UTF-8"?>
<!DOCTYPE svg PUBLIC "-//W3C//DTD SVG 1.0//EN" "http://www.w3.org/TR/2001/REC-SVG-20010904/DTD/svg10.dtd">
<!-- Creator: CorelDRAW 2017 -->
<svg xmlns="http://www.w3.org/2000/svg" xml:space="preserve" width="0.511394in" height="0.546406in" version="1.0" style="shape-rendering:geometricPrecision; text-rendering:geometricPrecision; image-rendering:optimizeQuality; fill-rule:evenodd; clip-rule:evenodd"
viewBox="0 0 511 546"
 xmlns:xlink="http://www.w3.org/1999/xlink">
 <defs>
  <style type="text/css">
   <![CDATA[
    .fil0 {fill:white}
    .fil1 {fill:white;fill-rule:nonzero}
   ]]>
  </style>
 </defs>
 <g id="Layer_x0020_1">
  <metadata id="CorelCorpID_0Corel-Layer"/>
  <g id="_2512957796272">
   <g>
    <path class="fil0" d="M318 81l2 3 3 2 3 2 4 1 4 1 4 1 4 1 4 1 4 1 4 2 4 2 3 3 3 3 2 4 1 5 1 6 -3 0 -3 0 -3 0 -3 0 -3 0 -3 -1 -3 -1 -3 -1 -3 -2 -3 -2 -3 -3 -3 -4 -3 -4 -4 -5 -4 -6 -4 -7zm48 -11l1 1 2 1 2 2 2 2 2 3 3 3 3 3 2 4 2 4 2 4 2 5 1 5 1 5 0 5 -1 5 -1 5 -3 -3 -2 -2 -2 -2 -2 -2 -2 -2 -2 -3 -2 -3 -1 -3 -1 -3 -1 -3 -1 -4 -1 -4 -1 -5 -1 -5 -1 -6 -1 -7zm21 63l-1 0 -1 0 -1 -1 -1 -1 -1 -1 -1 -1 -1 -1 -1 -1 -1 -1 -2 -1 -2 -1 -2 -1 -2 -1 -2 -1 -2 0 -2 0 -2 0 -2 0 -2 0 -2 0 -2 0 -2 1 -2 1 -2 1 -2 1 -2 1 -2 1 -2 1 -2 1 -1 1 -1 1 -1 1 2 0 3 0 3 1 3 1 3 1 3 1 3 1 3 1 4 1 4 1 4 0 4 0 4 -1 4 -1 4 -2 4 -3zm13 -33l1 1 1 2 2 2 2 3 2 3 2 4 2 4 1 4 1 5 1 5 0 5 0 5 -1 5 -1 5 -2 5 -3 5 -2 -3 -2 -3 -2 -3 -1 -3 -1 -3 -1 -3 -1 -3 -1 -3 0 -3 0 -4 0 -4 0 -4 0 -5 0 -5 1 -6 1 -6zm5 67l-1 -1 -1 -1 -1 -1 -1 -1 -1 -1 -1 -1 -1 -1 -1 -1 -1 -1 -1 -1 -1 -1 -1 -1 -1 -1 -2 -1 -2 -1 -2 -1 -2 -1 -2 -1 -2 0 -2 0 -2 0 -2 0 -2 0 -2 0 -2 0 -2 0 -2 0 -2 0 -2 0 -2 1 -1 1 -1 1 2 1 2 1 2 1 3 2 3 2 3 2 3 2 3 2 3 2 3 2 4 1 4 1 4 1 4 0 5 -1 5 -2zm8 39l-1 -1 -1 -1 -1 -1 -1 -2 -1 -2 -1 -2 -1 -2 -1 -2 -1 -2 -1 -2 -1 -2 -1 -2 -1 -2 -1 -2 -1 -1 -2 -1 -2 -1 -2 -1 -2 -1 -2 -1 -2 -1 -2 -1 -2 -1 -2 -1 -2 -1 -2 0 -2 0 -2 0 -2 0 -2 0 -2 0 -1 0 2 1 2 2 2 2 2 3 2 3 2 3 2 3 2 3 3 3 3 3 3 3 3 2 4 2 4 1 4 1 5 0zm-1 40l-1 -1 -1 -2 -1 -2 0 -2 0 -2 0 -2 0 -2 0 -2 0 -2 0 -2 0 -2 -1 -2 -1 -2 -1 -2 -1 -2 -1 -2 -1 -2 -1 -2 -2 -2 -2 -2 -2 -2 -2 -2 -2 -1 -2 -1 -2 -1 -2 -1 -2 -1 -2 -1 -2 -1 -2 -1 -2 0 -2 0 2 2 2 2 1 3 1 3 1 3 1 4 1 4 2 4 2 4 2 4 2 3 3 3 3 3 4 3 4 2 5 2zm30 -10l0 2 0 2 0 3 -1 3 -1 4 -1 4 -2 4 -2 4 -2 4 -3 4 -3 4 -3 3 -4 3 -4 2 -4 2 -5 1 1 -4 1 -3 1 -3 1 -3 1 -3 1 -3 1 -3 2 -3 2 -3 2 -3 3 -3 3 -3 3 -3 4 -3 4 -3 5 -3zm-41 48l0 -2 0 -2 0 -2 0 -2 0 -2 0 -2 0 -2 0 -2 0 -2 0 -2 0 -2 0 -2 0 -2 0 -2 0 -2 -1 -2 -1 -2 -1 -2 -1 -2 -1 -2 -1 -2 -1 -2 -1 -2 -1 -2 -1 -2 -1 -2 -1 -1 -1 -1 -1 -1 -1 -1 -1 -1 -1 -1 1 2 1 3 1 3 0 3 0 4 0 4 0 4 1 4 1 4 1 4 1 4 2 4 2 4 3 4 3 3 4 3zm31 0l0 2 -1 2 -1 3 -2 3 -2 3 -2 3 -3 3 -3 3 -3 3 -3 3 -4 3 -4 2 -4 1 -4 1 -5 0 -5 -1 2 -3 2 -3 2 -3 2 -3 2 -2 2 -2 2 -2 2 -2 3 -2 3 -2 3 -2 4 -2 4 -2 4 -2 5 -2 6 -2zm-51 33l0 -2 0 -2 0 -2 0 -2 1 -2 1 -2 1 -2 1 -2 1 -2 1 -2 1 -2 0 -2 0 -2 0 -2 0 -2 0 -2 0 -2 0 -2 0 -2 -1 -2 -1 -2 -1 -2 -1 -2 -1 -2 -1 -2 -1 -2 -1 -2 -1 -2 -1 -2 -1 -1 -1 -1 -1 -1 1 3 0 3 0 3 0 3 -1 4 -1 4 -1 4 0 4 0 4 0 4 0 4 1 4 1 4 2 4 2 4 3 4zm30 11l-1 1 -1 2 -2 2 -2 2 -3 2 -3 2 -3 2 -4 2 -4 2 -4 2 -4 1 -4 1 -4 0 -4 -1 -4 -2 -4 -2 2 -2 2 -2 2 -2 2 -2 2 -2 2 -2 3 -1 3 -1 3 -1 3 -1 3 -1 4 -1 4 0 5 0 5 0 6 0zm-57 14l0 -2 1 -1 1 -1 1 -1 1 -1 1 -1 1 -1 1 -2 1 -2 1 -2 1 -2 1 -2 1 -2 1 -2 1 -2 0 -2 0 -2 0 -2 0 -2 0 -3 0 -3 0 -3 0 -2 0 -2 0 -2 0 -2 -1 -2 -1 -2 -1 -2 -1 -2 -1 -2 -1 -1 0 3 -1 3 -1 3 -1 3 -1 3 -1 3 -1 4 -1 4 -1 4 -1 4 -1 4 0 4 0 5 1 5 1 5 2 5zm26 20l-1 1 -2 1 -2 1 -3 2 -3 2 -3 1 -4 1 -4 1 -4 1 -4 0 -4 0 -4 -1 -4 -1 -4 -2 -4 -3 -4 -4 3 -2 3 -2 3 -1 3 -1 3 -1 3 -1 3 0 3 0 3 0 3 0 4 1 4 1 4 1 5 1 5 2 5 2zm-58 -5l1 -1 1 -1 1 -1 1 -1 1 -1 1 -1 1 -1 1 -1 1 -1 1 -1 1 -1 1 -1 1 -1 1 -2 1 -2 1 -2 1 -2 1 -2 1 -2 1 -2 1 -2 1 -2 0 -2 0 -2 0 -2 0 -2 0 -2 0 -2 0 -2 0 -2 0 -2 0 -2 -1 3 -1 3 -2 3 -2 3 -2 3 -2 3 -2 3 -2 3 -2 3 -2 4 -2 4 -1 4 -1 4 -1 5 0 5 1 6zm20 28l-1 1 -2 1 -2 1 -3 1 -3 0 -4 0 -4 0 -4 0 -4 -1 -4 -1 -4 -2 -4 -2 -4 -3 -3 -3 -3 -4 -3 -5 3 -1 3 0 3 0 3 0 3 0 3 0 3 0 3 1 3 1 3 1 3 2 3 2 4 2 4 3 4 3 5 4zm-55 -23l1 -1 1 -1 1 -1 1 -1 1 -1 2 -1 2 -1 2 -1 2 -1 2 -1 2 -1 2 -1 2 -1 1 -1 1 -1 1 -2 1 -2 1 -2 1 -2 1 -2 1 -2 1 -2 1 -2 1 -2 1 -2 1 -2 1 -2 0 -2 0 -2 0 -2 0 -2 0 -2 -1 2 -2 2 -2 2 -2 2 -3 2 -3 2 -3 2 -3 2 -3 3 -3 3 -3 3 -2 4 -2 4 -2 4 -1 5 -1 6zm-111 0l0 0 0 0 0 0 0 0 0 0 0 0 0 0 0 0 0 0 0 0 0 0 0 0 0 0 0 0 0 0 0 0 -7 1zm-26 -27l0 1 0 1 0 1 0 1 0 1 0 1 0 1 0 1 1 1 1 1 1 1 1 0 1 0 1 0 1 0 1 0 -8 -12zm-8 10l0 0 0 0 0 0 1 0 1 0 1 0 1 0 1 0 1 0 1 0 1 0 1 0 1 0 1 0 1 1 1 1 -11 0zm-58 -105l1 1 1 1 1 1 1 1 0 1 0 1 0 1 0 1 0 1 0 1 0 1 0 1 1 1 1 1 1 1 1 0 -9 -12zm23 -75l-2 0 -1 0 -1 0 -1 0 -1 1 -1 1 -1 1 -1 1 -1 1 0 1 0 1 0 1 0 2 0 2 0 2 0 2 10 -16zm-10 -11l0 2 0 1 0 1 0 1 0 1 0 1 0 1 0 1 0 1 0 1 0 1 0 1 0 1 0 1 0 1 1 1 0 -18zm31 -23l-2 0 -2 0 -2 0 -2 0 -1 0 -1 0 -1 0 -1 1 -1 1 -1 1 0 1 0 1 0 1 0 1 0 1 -1 2 -1 2 -1 2 -1 2 -1 2 -1 2 -1 2 -1 2 -1 2 -1 2 -1 2 -1 2 -1 2 -1 2 0 2 0 2 0 1 30 -39zm-10 -14l0 2 0 2 0 2 0 1 0 1 0 1 0 1 0 1 0 1 0 1 0 1 0 1 0 1 0 1 0 1 0 1 5 -21zm21 -5l-1 2 -1 2 -2 2 -2 1 -2 1 -2 1 -2 1 -2 1 -2 1 -2 1 -2 1 -2 1 -1 1 -1 1 -1 2 -1 2 24 -22zm-49 103l0 1 0 2 0 2 0 2 0 3 0 3 0 3 0 3 0 3 0 3 0 3 0 3 0 2 0 2 0 2 1 1 -2 -38zm151 160l6 9 8 11 4 7 -18 -27zm-26 -16l0 0 0 1 0 1 0 1 0 1 0 1 0 1 0 1 0 1 0 1 0 1 1 1 1 0 1 0 1 0 1 0 -6 -9zm-4 11l0 0 0 0 0 0 0 0 0 0 0 0 0 0 0 0 0 0 0 0 0 0 0 0 0 0 0 0 0 0 0 0 -6 3zm-88 -59l0 1 0 1 0 1 0 1 0 1 0 1 0 1 0 1 0 1 0 1 0 1 0 1 1 1 1 0 1 0 2 0 -6 -11zm-10 7l1 -1 1 0 1 0 1 0 1 0 1 1 1 1 1 1 1 1 1 1 1 1 1 0 1 0 1 0 1 0 1 -1 -11 -3zm-8 -40l0 1 0 1 0 1 0 1 0 1 0 1 0 1 0 1 0 1 0 1 0 1 0 1 0 1 1 1 1 1 1 1 -2 -13zm-11 3l1 0 1 0 1 0 1 1 1 1 0 1 0 1 0 1 0 1 0 0 0 0 1 0 1 0 1 0 1 0 1 0 -10 -7zm195 79l0 0 0 1 0 1 0 1 0 1 0 1 0 1 0 1 0 1 0 1 0 1 -1 1 -1 0 -1 0 -1 0 -1 0 6 -9zm4 11l0 0 0 0 0 0 0 0 0 0 0 0 0 0 0 0 0 0 0 0 0 0 0 0 0 0 0 0 0 0 0 0 6 3zm30 -17l0 0 0 1 0 1 0 1 0 1 0 1 0 1 0 1 0 1 0 1 0 1 0 1 -1 1 -1 1 -1 0 -1 0 4 -10zm5 10l0 0 0 0 0 0 0 0 0 0 0 0 0 0 0 0 0 0 0 0 0 0 0 0 0 0 0 0 0 0 0 0 7 1zm26 -27l0 1 0 1 0 1 0 1 0 1 0 1 0 1 0 1 -1 1 -1 1 -1 1 -1 0 -1 0 -1 0 -1 0 -1 0 8 -12zm8 10l0 0 0 0 0 0 -1 0 -1 0 -1 0 -1 0 -1 0 -1 0 -1 0 -1 0 -1 0 -1 0 -1 0 -1 1 -1 1 11 0zm18 -35l0 1 0 1 0 1 0 1 0 1 0 1 0 1 0 1 0 1 0 1 0 1 0 1 -1 1 -1 0 -1 0 -2 0 6 -11zm10 7l-1 -1 -1 0 -1 0 -1 0 -1 0 -1 1 -1 1 -1 1 -1 1 -1 1 -1 1 -1 0 -1 0 -1 0 -1 0 -1 -1 11 -3zm8 -40l0 1 0 1 0 1 0 1 0 1 0 1 0 1 0 1 0 1 0 1 0 1 0 1 0 1 -1 1 -1 1 -1 1 2 -13zm11 3l-1 0 -1 0 -1 0 -1 1 -1 1 0 1 0 1 0 1 0 1 0 0 0 0 -1 0 -1 0 -1 0 -1 0 -1 0 10 -7zm-3 -41l1 1 1 1 1 1 1 1 1 1 1 1 1 1 0 1 0 1 0 1 0 1 0 1 0 1 0 1 -1 1 -1 1 -1 1 -1 1 -1 2 -1 2 -1 2 -1 2 -1 3 -1 3 -1 3 -1 3 -1 2 -1 2 -1 2 -1 2 -1 1 -1 1 -1 1 -1 1 -1 2 -1 2 -1 2 -1 2 -2 2 -2 2 -2 2 -2 2 -1 2 -1 2 -1 2 -1 2 -1 2 0 2 -1 1 -1 1 -1 1 -1 0 -1 0 -1 0 -1 0 -2 0 -2 1 -2 1 -2 1 -2 2 -3 3 -3 3 -3 4 -3 5 -1 1 -1 1 -1 1 -2 1 -2 1 -2 1 -2 1 -2 1 -3 1 -3 1 -3 1 -2 1 -2 1 -2 1 -2 1 -2 1 -1 1 -1 1 -1 1 -1 1 -1 0 -1 0 -1 0 -1 0 -1 0 -1 0 -1 0 -1 0 -2 0 -2 0 -2 0 -3 0 -3 0 -2 0 -2 0 -2 0 -1 1 -1 1 -1 1 -1 1 -1 1 -1 1 -2 1 -2 1 -2 0 -3 0 -3 0 -4 0 -1 0 -1 0 -1 0 -1 1 -1 1 -1 1 -1 1 -1 1 -1 1 -1 1 -1 1 -1 1 -1 1 -1 1 -1 1 0 1 149 -143zm13 2l-1 1 -1 1 -1 1 -1 1 0 1 0 1 0 1 0 1 0 1 0 1 0 1 0 1 -1 1 -1 1 -1 1 -1 0 9 -12zm-13 -40l1 1 1 1 1 1 1 1 1 1 1 1 1 1 1 1 0 1 0 1 0 1 0 1 0 1 0 1 0 1 0 2 -6 -15zm11 -2l-1 1 -1 1 0 1 0 1 0 1 0 1 0 1 0 1 0 1 0 1 0 1 0 1 0 1 0 1 -1 1 -1 1 5 -16zm-21 -32l2 0 1 0 1 0 1 0 1 1 1 1 1 1 1 1 1 1 0 1 0 1 0 1 0 2 0 2 0 2 0 2 -10 -16zm10 -11l0 2 0 1 0 1 0 1 0 1 0 1 0 1 0 1 0 1 0 1 0 1 0 1 0 1 0 1 0 1 -1 1 0 -18zm-31 -23l2 0 2 0 2 0 2 0 1 0 1 0 1 0 1 1 1 1 1 1 0 1 0 1 0 1 0 1 0 1 1 2 1 2 1 2 1 2 1 2 1 2 1 2 1 2 1 2 1 2 1 2 1 2 1 2 1 2 0 2 0 2 0 1 -30 -39zm10 -14l0 2 0 2 0 2 0 1 0 1 0 1 0 1 0 1 0 1 0 1 0 1 0 1 0 1 0 1 0 1 0 1 -5 -21zm-21 -5l1 2 1 2 2 2 2 1 2 1 2 1 2 1 2 1 2 1 2 1 2 1 2 1 1 1 1 1 1 2 1 2 -24 -22zm43 69l0 1 0 1 0 2 1 2 1 2 1 2 1 2 1 2 1 2 1 2 1 2 0 2 0 2 0 2 0 2 0 2 -7 -32zm6 34l0 1 0 2 0 2 0 2 0 3 0 3 0 3 0 3 0 3 0 3 0 3 0 3 0 2 0 2 0 2 -1 1 2 -38zm-150 159l-6 9 -8 11 -4 7 18 -26zm-82 -21l0 0 0 1 0 1 0 1 0 1 0 1 0 1 0 1 0 1 0 1 0 1 0 1 1 1 1 1 1 0 1 0 -4 -10zm-85 -115l-1 1 -1 1 -1 1 -1 1 -1 1 -1 1 -1 1 0 1 0 1 0 1 0 1 0 1 0 1 0 1 1 1 1 1 1 1 1 1 1 2 1 2 1 2 1 2 1 3 1 3 1 3 1 3 1 2 1 2 1 2 1 2 1 1 1 1 1 1 1 1 1 2 1 2 1 2 1 2 2 2 2 2 2 2 2 2 1 2 1 2 1 2 1 2 1 2 0 2 1 1 1 1 1 1 1 0 1 0 1 0 1 0 2 0 2 1 2 1 2 1 2 2 3 3 3 3 3 4 3 5 1 1 1 1 1 1 2 1 2 1 2 1 2 1 2 1 3 1 3 1 3 1 2 1 2 1 2 1 2 1 2 1 1 1 1 1 1 1 1 1 1 0 1 0 1 0 1 0 1 0 1 0 1 0 1 0 2 0 2 0 2 0 3 0 3 0 2 0 2 0 2 0 1 1 1 1 1 1 1 1 1 1 1 1 2 1 2 1 2 0 3 0 3 0 4 0 1 0 1 0 1 0 1 1 1 1 1 1 1 1 1 1 1 1 1 1 1 1 1 1 1 1 1 1 1 1 0 1 -149 -143zm-1 -38l-1 1 -1 1 -1 1 -1 1 -1 1 -1 1 -1 1 -1 1 0 1 0 1 0 1 0 1 0 1 0 1 0 1 0 2 6 -15zm-11 -2l1 1 1 1 0 1 0 1 0 1 0 1 0 1 0 1 0 1 0 1 0 1 0 1 0 1 0 1 1 1 1 1 -5 -16zm11 -17l0 1 0 1 0 2 -1 2 -1 2 -1 2 -1 2 -1 2 -1 2 -1 2 -1 2 0 2 0 2 0 2 0 2 0 2 7 -32zm327 -41l1 2 1 2 1 3 1 3 1 4 1 4 1 4 0 5 0 5 0 5 -1 5 -1 5 -2 5 -2 4 -3 4 -4 4 -1 -4 -1 -3 -1 -3 -1 -3 0 -3 0 -3 0 -3 0 -3 0 -3 1 -4 1 -4 1 -4 1 -5 2 -5 2 -5 2 -6zm15 47l0 2 0 2 0 3 0 3 0 4 0 4 -1 4 -1 5 -1 5 -2 5 -2 4 -2 4 -3 4 -3 3 -4 3 -5 2 0 -4 0 -4 0 -3 0 -3 0 -3 1 -3 1 -3 1 -3 1 -3 1 -3 2 -3 2 -4 2 -4 3 -4 3 -4 4 -5zm-249 -105l-2 3 -3 2 -3 2 -4 1 -4 1 -4 1 -4 1 -4 1 -4 1 -4 2 -4 2 -3 3 -3 3 -2 4 -1 5 -1 6 3 0 3 0 3 0 3 0 3 0 3 -1 3 -1 3 -1 3 -2 3 -2 3 -3 3 -4 3 -4 4 -5 4 -6 4 -7zm-48 -11l-1 1 -2 1 -2 2 -2 2 -2 3 -3 3 -3 3 -2 4 -2 4 -2 4 -2 5 -1 5 -1 5 0 5 1 5 1 5 3 -3 2 -2 2 -2 2 -2 2 -2 2 -3 2 -3 1 -3 1 -3 1 -3 1 -4 1 -4 1 -5 1 -5 1 -6 1 -7zm-21 63l1 0 1 0 1 -1 1 -1 1 -1 1 -1 1 -1 1 -1 1 -1 2 -1 2 -1 2 -1 2 -1 2 -1 2 0 2 0 2 0 2 0 2 0 2 0 2 0 2 1 2 1 2 1 2 1 2 1 2 1 2 1 2 1 1 1 1 1 1 1 -2 0 -3 0 -3 1 -3 1 -3 1 -3 1 -3 1 -3 1 -4 1 -4 1 -4 0 -4 0 -4 -1 -4 -1 -4 -2 -4 -3zm-13 -33l-1 1 -1 2 -2 2 -2 3 -2 3 -2 4 -2 4 -1 4 -1 5 -1 5 0 5 0 5 1 5 1 5 2 5 3 5 2 -3 2 -3 2 -3 1 -3 1 -3 1 -3 1 -3 1 -3 0 -3 0 -4 0 -4 0 -4 0 -5 0 -5 -1 -6 -1 -6zm-5 67l1 -1 1 -1 1 -1 1 -1 1 -1 1 -1 1 -1 1 -1 1 -1 1 -1 1 -1 1 -1 1 -1 2 -1 2 -1 2 -1 2 -1 2 -1 2 0 2 0 2 0 2 0 2 0 2 0 2 0 2 0 2 0 2 0 2 0 2 1 1 1 1 1 -2 1 -2 1 -2 1 -3 2 -3 2 -3 2 -3 2 -3 2 -3 2 -3 2 -4 1 -4 1 -4 1 -4 0 -5 -1 -5 -2zm-20 -27l-1 2 -1 2 -1 3 -1 3 -1 4 -1 4 -1 4 0 5 0 5 0 5 1 5 1 5 2 5 2 4 3 4 4 4 1 -4 1 -3 1 -3 1 -3 0 -3 0 -3 0 -3 0 -3 0 -3 -1 -4 -1 -4 -1 -4 -1 -5 -2 -5 -2 -5 -2 -6zm12 67l1 -1 1 -1 1 -1 1 -2 1 -2 1 -2 1 -2 1 -2 1 -2 1 -2 1 -2 1 -2 1 -2 1 -2 1 -1 2 -1 2 -1 2 -1 2 -1 2 -1 2 -1 2 -1 2 -1 2 -1 2 -1 2 0 2 0 2 0 2 0 2 0 2 0 1 0 -2 1 -2 2 -2 2 -2 3 -2 3 -2 3 -2 3 -2 3 -3 3 -3 3 -3 3 -3 2 -4 2 -4 1 -4 1 -5 0zm-26 -20l0 2 0 2 0 3 0 3 0 4 0 4 1 4 1 5 1 5 2 5 2 4 2 4 3 4 3 3 4 3 5 2 0 -4 0 -4 0 -3 0 -3 0 -3 -1 -3 -1 -3 -1 -3 -1 -3 -1 -3 -2 -3 -2 -4 -3 -4 -3 -4 -3 -4 -4 -5zm27 59l1 -1 1 -2 1 -2 0 -2 0 -2 0 -2 0 -2 0 -2 0 -2 0 -2 0 -2 1 -2 1 -2 1 -2 1 -2 1 -2 1 -2 1 -2 2 -2 2 -2 2 -2 2 -2 2 -1 2 -1 2 -1 2 -1 2 -1 2 -1 2 -1 2 -1 2 0 2 0 -2 2 -2 2 -1 3 -1 3 -1 3 -1 4 -1 4 -2 4 -2 4 -2 4 -2 3 -3 3 -3 3 -4 3 -4 2 -5 2zm-30 -10l0 2 0 2 0 3 1 3 1 4 1 4 2 4 2 4 2 4 3 4 3 4 3 3 4 3 4 2 4 2 5 1 -1 -4 -1 -3 -1 -3 -1 -3 -1 -3 -1 -3 -1 -3 -2 -3 -2 -3 -2 -3 -3 -3 -3 -3 -3 -3 -4 -3 -4 -3 -5 -3zm41 48l0 -2 0 -2 0 -2 0 -2 0 -2 0 -2 0 -2 0 -2 0 -2 0 -2 0 -2 0 -2 0 -2 0 -2 0 -2 1 -2 1 -2 1 -2 1 -2 1 -2 1 -2 1 -2 1 -2 1 -2 1 -2 1 -2 1 -1 1 -1 1 -1 1 -1 1 -1 1 -1 -1 2 -1 3 -1 3 0 3 0 4 0 4 0 4 -1 4 -1 4 -1 4 -1 4 -2 4 -2 4 -3 4 -3 3 -4 3zm-31 0l0 2 1 2 1 3 2 3 2 3 2 3 3 3 3 3 3 3 3 3 4 3 4 2 4 1 4 1 5 0 5 -1 -2 -3 -2 -3 -2 -3 -2 -3 -2 -2 -2 -2 -2 -2 -2 -2 -3 -2 -3 -2 -3 -2 -4 -2 -4 -2 -4 -2 -5 -2 -6 -2zm51 33l0 -2 0 -2 0 -2 0 -2 -1 -2 -1 -2 -1 -2 -1 -2 -1 -2 -1 -2 -1 -2 0 -2 0 -2 0 -2 0 -2 0 -2 0 -2 0 -2 1 -2 1 -2 1 -2 1 -2 1 -2 1 -2 1 -2 1 -2 1 -2 1 -2 1 -2 1 -1 1 -1 1 -1 -1 3 0 3 0 3 0 3 1 4 1 4 1 4 0 4 0 4 0 4 0 4 -1 4 -1 4 -2 4 -2 4 -3 4zm-30 11l1 1 1 2 2 2 2 2 3 2 3 2 3 2 4 2 4 2 4 2 4 1 4 1 4 0 4 -1 4 -2 4 -2 -2 -2 -2 -2 -2 -2 -2 -2 -2 -2 -2 -2 -3 -1 -3 -1 -3 -1 -3 -1 -3 -1 -4 -1 -4 0 -5 0 -5 0 -6 0zm57 14l0 -2 -1 -1 -1 -1 -1 -1 -1 -1 -1 -1 -1 -1 -1 -2 -1 -2 -1 -2 -1 -2 -1 -2 -1 -2 -1 -2 -1 -2 0 -2 0 -2 0 -2 0 -2 0 -3 0 -3 0 -3 0 -2 0 -2 0 -2 0 -2 1 -2 1 -2 1 -2 1 -2 1 -2 1 -1 0 3 1 3 1 3 1 3 1 3 1 3 1 4 1 4 1 4 1 4 1 4 0 4 0 5 -1 5 -1 5 -2 5zm-26 20l1 1 2 1 2 1 3 2 3 2 3 1 4 1 4 1 4 1 4 0 4 0 4 -1 4 -1 4 -2 4 -3 4 -4 -3 -2 -3 -2 -3 -1 -3 -1 -3 -1 -3 -1 -3 -1 -3 0 -3 0 -3 0 -4 1 -4 1 -4 1 -5 1 -5 2 -5 2zm58 -5l-1 -1 -1 -1 -1 -1 -1 -1 -1 -1 -1 -1 -1 -1 -1 -1 -1 -1 -1 -1 -1 -1 -1 -1 -1 -1 -1 -2 -1 -2 -1 -2 -1 -2 -1 -2 -1 -2 -1 -2 -1 -2 -1 -2 0 -2 0 -2 0 -2 0 -2 0 -2 0 -2 0 -2 0 -2 0 -2 0 -2 1 3 1 3 2 3 2 3 2 3 2 3 2 3 2 3 2 3 2 4 2 4 1 4 1 4 1 5 0 5 -1 6zm-20 28l1 1 2 1 2 1 3 1 3 0 4 0 4 0 4 0 4 -1 4 -1 4 -2 4 -2 4 -3 3 -3 3 -4 3 -5 -3 -1 -3 0 -3 0 -3 0 -3 0 -3 0 -3 0 -3 1 -3 1 -3 1 -3 2 -3 2 -4 2 -4 3 -4 3 -5 4zm55 -23l-1 -1 -1 -1 -1 -1 -1 -1 -1 -1 -2 -1 -2 -1 -2 -1 -2 -1 -2 -1 -2 -1 -2 -1 -2 -1 -1 -1 -1 -1 -1 -2 -1 -2 -1 -2 -1 -2 -1 -2 -1 -2 -1 -2 -1 -2 -1 -2 -1 -2 -1 -2 -1 -2 0 -2 0 -2 0 -2 0 -2 0 -2 1 2 2 2 2 2 2 2 3 2 3 2 3 2 3 2 3 3 3 3 3 3 2 4 2 4 2 4 1 5 1 6zm-11 -312l1 -5 19 0 -3 15c-3,2 -6,4 -10,5 -3,1 -6,2 -10,2 -4,0 -8,-1 -11,-3 -3,-2 -5,-4 -7,-7 -1,-3 -1,-7 -1,-11 1,-4 2,-8 5,-11 2,-3 5,-6 9,-8 4,-2 8,-2 12,-2 3,0 6,0 8,1 2,1 4,2 5,4 1,2 2,4 2,7l-6 1c0,-2 -1,-4 -2,-5 -1,-1 -2,-2 -4,-3 -2,-1 -4,-1 -6,-1 -3,0 -5,0 -7,1 -2,1 -4,2 -5,3 -1,1 -3,3 -3,4 -2,2 -3,5 -3,8 -1,4 -1,7 0,9 1,2 3,4 5,5 2,1 5,2 8,2 3,0 5,0 8,-1 3,-1 5,-2 6,-3l1 -7 -13 0zm26 16l7 -40 6 0 -7 40 -6 0zm28 0l7 -40 6 0 -7 40 -6 0zm38 0l6 -35 -15 0 1 -5 35 0 -1 5 -15 0 -6 35 -6 0zm-96 22l3 0c0,1 0,2 1,2 0,0 1,1 2,1 1,0 2,0 2,-1 0,0 1,-1 1,-1 0,0 0,-1 0,-1 0,0 -1,0 -1,-1 0,0 -1,0 -2,-1 -1,0 -3,-1 -3,-1 -1,-1 -1,-2 -1,-3 0,-1 0,-1 1,-2 0,-1 1,-1 2,-1 1,0 2,0 3,0 2,0 3,0 4,1 1,1 1,2 1,3l-3 0c0,-1 0,-1 -1,-2 0,0 -1,0 -2,0 -1,0 -1,0 -2,1 0,0 0,1 0,1 0,0 0,1 0,1 0,0 1,1 3,1 1,0 2,1 3,1 1,0 1,1 2,1 0,1 1,1 1,2 0,1 0,2 -1,2 0,1 -1,1 -2,2 -1,0 -2,1 -3,1 -2,0 -3,0 -4,-1 -1,-1 -1,-2 -2,-4zm13 -7l0 -2 3 0 0 2 -3 0zm0 12l0 -10 3 0 0 10 -3 0zm14 0l-3 0 0 -5c0,-1 0,-2 0,-2 0,0 0,-1 -1,-1 0,0 -1,0 -1,0 0,0 -1,0 -1,0 0,0 -1,1 -1,1 0,0 0,1 0,2l0 5 -3 0 0 -10 2 0 0 1c1,-1 2,-2 3,-2 1,0 1,0 2,0 0,0 1,0 1,1 0,0 0,1 1,1 0,0 0,1 0,2l0 6zm11 -7l-3 0c0,-1 0,-1 -1,-1 0,0 -1,0 -1,0 -1,0 -1,0 -2,1 0,0 -1,1 -1,2 0,1 0,2 1,3 0,0 1,1 2,1 0,0 1,0 1,0 0,0 1,-1 1,-2l3 0c0,1 -1,2 -2,3 -1,1 -2,1 -3,1 -1,0 -3,0 -3,-1 -1,-1 -1,-2 -1,-4 0,-2 0,-3 1,-4 1,-1 2,-1 4,-1 1,0 2,0 3,1 1,1 1,1 2,2zm8 4l3 0c0,1 -1,2 -2,2 -1,1 -2,1 -3,1 -2,0 -3,-1 -4,-2 -1,-1 -1,-2 -1,-4 0,-2 0,-3 1,-4 1,-1 2,-1 3,-1 1,0 3,1 3,2 1,1 1,3 1,5l-7 0c0,1 0,1 1,2 0,0 1,1 2,1 0,0 1,0 1,0 0,0 0,-1 1,-1zm0 -3c0,-1 0,-1 -1,-2 0,0 -1,-1 -1,-1 -1,0 -1,0 -1,1 0,0 -1,1 -1,2l4 0zm16 6l-3 0 0 -10c-1,1 -2,2 -3,2l0 -2c1,0 1,-1 2,-1 1,-1 1,-1 2,-2l2 0 0 14zm4 -3l3 0c0,1 0,1 0,1 0,0 1,0 1,0 1,0 1,0 1,-1 0,-1 1,-2 1,-3 -1,1 -1,1 -2,1 -1,0 -2,0 -3,-1 -1,-1 -1,-2 -1,-3 0,-1 0,-3 1,-3 1,-1 2,-1 3,-1 1,0 3,1 3,2 1,1 1,3 1,5 0,3 0,4 -1,6 -1,1 -2,2 -4,2 -1,0 -2,0 -3,-1 -1,-1 -1,-1 -1,-3zm6 -6c0,-1 0,-2 -1,-2 0,0 -1,-1 -1,-1 0,0 -1,0 -1,1 0,0 0,1 0,2 0,1 0,2 1,2 0,0 1,1 1,1 1,0 1,0 1,-1 0,0 1,-1 1,-2zm5 6l3 0c0,1 0,1 0,1 0,0 1,0 1,0 1,0 1,0 1,-1 0,-1 1,-2 1,-3 -1,1 -1,1 -2,1 -1,0 -2,0 -3,-1 -1,-1 -1,-2 -1,-3 0,-1 0,-3 1,-3 1,-1 2,-1 3,-1 1,0 3,1 3,2 1,1 1,3 1,5 0,3 0,4 -1,6 -1,1 -2,2 -4,2 -1,0 -2,0 -3,-1 -1,-1 -1,-1 -1,-3zm6 -6c0,-1 0,-2 -1,-2 0,0 -1,-1 -1,-1 0,0 -1,0 -1,1 0,0 0,1 0,2 0,1 0,2 1,2 0,0 1,1 1,1 1,0 1,0 1,-1 0,0 1,-1 1,-2zm10 9l0 -3 -6 0 0 -2 6 -9 2 0 0 9 2 0 0 2 -2 0 0 3 -3 0zm0 -5l0 -5 -3 5 3 0zm36 -87c2,0 3,0 5,1 2,1 3,2 4,4 1,2 1,4 1,5 0,2 0,4 -1,5 -1,2 -2,3 -4,4 -2,1 -3,1 -5,1 -2,0 -4,0 -5,-1 -2,-1 -3,-2 -4,-4 -1,-2 -1,-3 -1,-5 0,-2 0,-4 1,-5 1,-2 2,-3 4,-4 2,-1 3,-1 5,-1zm0 2c-1,0 -3,0 -4,1 -1,1 -2,2 -3,3 -1,1 -1,3 -1,5 0,2 0,3 1,4 1,1 2,3 3,3 1,1 3,1 4,1 2,0 3,0 4,-1 1,-1 2,-2 3,-3 1,-1 1,-3 1,-4 0,-2 0,-3 -1,-5 -1,-1 -2,-3 -3,-3 -1,-1 -3,-1 -4,-1zm-5 15l0 -12 4 0c1,0 2,0 3,0 1,0 1,1 1,1 0,1 1,1 1,2 0,1 0,2 -1,2 -1,1 -1,1 -2,1 0,0 1,0 1,1 0,0 1,1 2,2l1 2 -2 0 -1 -2c-1,-1 -1,-2 -2,-3 0,0 -1,0 -1,0l-1 0 0 5 -2 0zm2 -7l2 0c1,0 2,0 2,0 0,0 1,-1 1,-1 0,0 0,-1 0,-1 0,0 0,0 -1,-1 0,0 -1,0 -2,0l-2 0 0 3zm-76 93c66,0 119,52 119,117 0,65 -53,117 -119,117 -66,0 -119,-52 -119,-117 0,-65 53,-117 119,-117zm-1 40c43,0 79,34 79,76 0,42 -35,76 -79,76 -43,0 -79,-34 -79,-76 0,-42 35,-76 79,-76zm1 160l4 9 11 0 -9 5 4 9 -9 -5 -9 5 4 -9 -9 -5 11 0 4 -9zm0 -193c62,0 112,49 112,110 0,61 -50,110 -112,110 -62,0 -112,-49 -112,-110 0,-61 50,-110 112,-110zm8 55l0 103c13,-2 26,-7 40,-16 3,3 5,7 8,10 -36,23 -73,28 -114,0 3,-4 5,-7 8,-11 14,10 28,15 42,17l0 -104c-14,1 -28,7 -42,17 -3,-4 -5,-7 -8,-11 41,-28 79,-23 114,0 -3,3 -5,7 -8,10 -13,-9 -27,-14 -40,-16zm-54 48l35 0 0 11 -35 0 0 -11zm64 8l18 -20 6 6 -10 11 14 9 -4 8 -24 -15zm-100 226l-83 0 83 14 0 -14zm163 1l85 -1 -84 15 -1 -13zm-247 -3l337 0 0 -55 -337 0 0 55zm16 -16l3 -23 15 0 -1 4 -11 0 -1 5 10 0 -1 4 -10 0 -1 6 11 0 -1 4 -15 0zm32 0l-4 0 0 -2c-1,1 -2,2 -2,2 -1,0 -2,1 -3,1 -2,0 -3,-1 -4,-2 -1,-2 -1,-4 -1,-6 0,-3 1,-5 3,-6 1,-1 3,-2 5,-2 2,0 3,1 4,2l1 -8 4 0 -3 23zm-9 -9c0,2 0,3 0,4 0,1 1,2 2,2 1,0 2,0 2,-1 1,-1 1,-2 2,-4 0,-2 0,-3 0,-4 0,-1 -1,-1 -2,-1 -1,0 -2,0 -2,1 -1,1 -1,2 -1,4zm23 9l0 -2c-1,1 -1,2 -2,2 -1,1 -2,1 -3,1 -1,0 -2,0 -3,-1 -1,0 -1,-1 -1,-2 0,-1 0,-2 0,-4l2 -10 4 0 -1 8c0,2 0,4 0,4 0,1 0,1 1,1 0,0 1,0 1,0 1,0 1,0 2,-1 1,0 1,-1 1,-2 0,-1 1,-2 1,-4l1 -7 4 0 -2 16 -4 0zm22 -12l-4 1c0,-1 0,-1 -1,-2 0,0 -1,-1 -2,-1 -1,0 -2,0 -2,1 -1,1 -1,2 -1,4 0,2 0,3 0,4 0,1 1,1 2,1 1,0 1,0 2,-1 1,0 1,-1 1,-2l4 1c-1,2 -2,3 -3,4 -1,1 -3,1 -5,1 -2,0 -4,-1 -5,-2 -1,-2 -1,-4 -1,-6 0,-3 1,-5 3,-6 2,-2 3,-2 6,-2 2,0 3,0 4,1 1,1 1,2 2,4zm6 0l-3 -1c1,-2 1,-3 3,-4 1,-1 3,-1 4,-1 2,0 3,0 4,1 1,0 1,1 2,2 0,1 0,2 0,4l-1 5c0,1 0,2 0,3 0,1 0,1 0,2l-4 0c0,0 0,-1 0,-1 0,0 0,0 0,-1 -1,1 -2,1 -2,2 -1,0 -2,1 -3,1 -2,0 -3,0 -3,-1 -1,-1 -1,-2 -1,-3 0,-1 0,-2 1,-2 1,-1 1,-1 2,-2 1,0 2,-1 3,-1 2,0 3,-1 4,-1l0 0c0,-1 0,-1 0,-2 0,0 -1,-1 -2,-1 -1,0 -1,0 -2,0 0,0 -1,1 -1,2zm5 4c-1,0 -1,0 -2,1 -1,0 -2,1 -2,1 -1,0 -1,1 -1,2 0,1 0,1 0,2 0,0 1,1 1,1 1,0 1,0 2,-1 1,0 1,-1 1,-1 0,0 0,-1 0,-2l0 -1zm16 -8l-1 3 -3 0 -1 7c0,1 0,2 0,2 0,0 0,0 0,1 0,0 0,0 1,0 0,0 1,0 2,0l0 3c-1,0 -2,1 -3,1 -1,0 -1,0 -2,0 -1,0 -1,-1 -1,-1 0,0 0,-1 0,-2 0,-1 0,-2 0,-3l1 -7 -2 0 1 -3 2 0 0 -3 4 -3 -1 6 3 0zm3 -2l1 -4 4 0 -1 4 -4 0zm-3 19l2 -16 4 0 -2 16 -4 0zm8 -8c0,-1 1,-3 2,-4 1,-1 2,-2 3,-3 1,-1 3,-1 4,-1 2,0 4,1 5,2 1,2 2,4 1,6 0,2 -1,5 -3,6 -2,2 -4,2 -6,2 -1,0 -3,0 -4,-1 -1,-1 -2,-2 -2,-3 0,-1 -1,-3 0,-5zm4 0c0,2 0,3 0,4 1,1 1,1 2,1 1,0 2,0 3,-1 1,-1 1,-2 2,-4 0,-2 0,-3 0,-4 -1,-1 -1,-1 -2,-1 -1,0 -2,0 -3,1 -1,1 -1,2 -2,4zm26 8l-4 0 1 -8c0,-2 0,-3 0,-3 0,-1 0,-1 -1,-1 0,0 -1,0 -1,0 -1,0 -1,0 -2,1 -1,0 -1,1 -1,2 0,1 -1,2 -1,4l-1 7 -4 0 2 -16 4 0 0 2c2,-2 3,-3 5,-3 1,0 2,0 2,1 1,0 1,1 1,1 0,1 0,1 0,2 0,1 0,2 0,3l-2 10zm16 -11l-3 -1c1,-2 1,-3 3,-4 1,-1 3,-1 4,-1 2,0 3,0 4,1 1,0 1,1 2,2 0,1 0,2 0,4l-1 5c0,1 0,2 0,3 0,1 0,1 0,2l-4 0c0,0 0,-1 0,-1 0,0 0,0 0,-1 -1,1 -2,1 -2,2 -1,0 -2,1 -3,1 -2,0 -3,0 -3,-1 -1,-1 -1,-2 -1,-3 0,-1 0,-2 1,-2 1,-1 1,-1 2,-2 1,0 2,-1 3,-1 2,0 3,-1 4,-1l0 0c0,-1 0,-1 0,-2 0,0 -1,-1 -2,-1 -1,0 -1,0 -2,0 0,0 -1,1 -1,2zm5 4c-1,0 -1,0 -2,1 -1,0 -2,1 -2,1 -1,0 -1,1 -1,2 0,1 0,1 0,2 0,0 1,1 1,1 1,0 1,0 2,-1 1,0 1,-1 1,-1 0,0 0,-1 0,-2l0 -1zm16 -8l-1 3 -3 0 -1 7c0,1 0,2 0,2 0,0 0,0 0,1 0,0 0,0 1,0 0,0 1,0 2,0l0 3c-1,0 -2,1 -3,1 -1,0 -1,0 -2,0 -1,0 -1,-1 -1,-1 0,0 0,-1 0,-2 0,-1 0,-2 0,-3l1 -7 -2 0 1 -3 2 0 0 -3 4 -3 -1 6 3 0zm13 16l1 -9 -6 -13 5 0 3 9 6 -9 5 0 -9 13 -1 9 -4 0zm12 -8c0,-1 1,-3 2,-4 1,-1 2,-2 3,-3 1,-1 3,-1 4,-1 2,0 4,1 5,2 1,2 2,4 1,6 0,2 -1,5 -3,6 -2,2 -4,2 -6,2 -1,0 -3,0 -4,-1 -1,-1 -2,-2 -2,-3 0,-1 -1,-3 0,-5zm4 0c0,2 0,3 0,4 1,1 1,1 2,1 1,0 2,0 3,-1 1,-1 1,-2 2,-4 0,-2 0,-3 0,-4 -1,-1 -1,-1 -2,-1 -1,0 -2,0 -3,1 -1,1 -1,2 -2,4zm23 8l0 -2c-1,1 -1,2 -2,2 -1,1 -2,1 -3,1 -1,0 -2,0 -3,-1 -1,0 -1,-1 -1,-2 0,-1 0,-2 0,-4l2 -10 4 0 -1 8c0,2 0,4 0,4 0,1 0,1 1,1 0,0 1,0 1,0 1,0 1,0 2,-1 1,0 1,-1 1,-2 0,-1 1,-2 1,-4l1 -7 4 0 -2 16 -4 0zm11 0l-4 0 2 -16 4 0 0 2c1,-1 1,-2 2,-2 1,0 1,-1 2,-1 1,0 2,0 2,1l-2 4c-1,0 -1,-1 -2,-1 -1,0 -1,0 -1,1 0,0 -1,1 -1,2 0,1 -1,3 -1,5l-1 5zm19 -23l8 0c2,0 3,0 4,0 1,0 2,1 3,2 1,1 1,2 1,4 0,1 0,3 0,5 0,2 -1,3 -1,5 -1,2 -2,3 -3,4 -1,1 -2,1 -3,2 -1,0 -2,0 -4,0l-8 0 3 -23zm4 4l-2 15 3 0c1,0 2,0 3,0 1,0 1,0 2,-1 1,0 1,-1 1,-2 0,-1 1,-2 1,-4 0,-2 0,-3 0,-4 0,-1 0,-2 -1,-2 0,-1 -1,-1 -2,-1 -1,0 -2,0 -3,0l-2 0zm14 10c0,-1 1,-3 2,-4 1,-1 2,-2 3,-3 1,-1 3,-1 4,-1 2,0 4,1 5,2 1,2 2,4 1,6 0,2 -1,5 -3,6 -2,2 -4,2 -6,2 -1,0 -3,0 -4,-1 -1,-1 -2,-2 -2,-3 0,-1 -1,-3 0,-5zm4 0c0,2 0,3 0,4 1,1 1,1 2,1 1,0 2,0 3,-1 1,-1 1,-2 2,-4 0,-2 0,-3 0,-4 -1,-1 -1,-1 -2,-1 -1,0 -2,0 -3,1 -1,1 -1,2 -2,4zm13 0c0,-1 1,-3 2,-4 1,-1 2,-2 3,-3 1,-1 3,-1 4,-1 2,0 4,1 5,2 1,2 2,4 1,6 0,2 -1,5 -3,6 -2,2 -4,2 -6,2 -1,0 -3,0 -4,-1 -1,-1 -2,-2 -2,-3 0,-1 -1,-3 0,-5zm4 0c0,2 0,3 0,4 1,1 1,1 2,1 1,0 2,0 3,-1 1,-1 1,-2 2,-4 0,-2 0,-3 0,-4 -1,-1 -1,-1 -2,-1 -1,0 -2,0 -3,1 -1,1 -1,2 -2,4zm17 8l-4 0 2 -16 4 0 0 2c1,-1 1,-2 2,-2 1,0 1,-1 2,-1 1,0 2,0 2,1l-2 4c-1,0 -1,-1 -2,-1 -1,0 -1,0 -1,1 0,0 -1,1 -1,2 0,1 -1,3 -1,5l-1 5zm-360 8l-50 27 173 0 -89 -16 0 -38 -84 0 50 27 0 0zm411 0l50 27 -173 0 90 -17 0 -37 84 0 -50 27 0 0zm-249 -143l-7 13 5 3 -1 2 -11 -6 1 -2 5 3 7 -13 2 1zm-8 -5l-10 13 -2 -1 3 -5c-1,0 -3,0 -4,-1 -1,-1 -1,-1 -1,-2 0,-1 0,-1 0,-2 0,-1 1,-1 1,-2l4 -6 2 1 -4 6c-1,1 -1,2 -1,2 0,1 0,1 1,2 0,0 1,1 2,1 1,0 1,0 2,0 0,0 1,-1 2,-2l4 -5 2 1zm-18 -11l-1 -2c1,-1 2,-1 3,-1 1,0 2,1 3,2 1,1 2,3 2,4 0,1 -1,3 -2,4 -1,1 -3,2 -4,2 -1,0 -3,-1 -4,-2 -1,-1 -2,-2 -2,-4 0,-1 1,-3 2,-4 0,0 0,0 0,0l6 6c1,-1 1,-2 1,-3 0,-1 0,-2 -1,-3 -1,-1 -1,-1 -2,-1 -1,0 -1,0 -2,0zm2 7l-5 -5c-1,1 -1,1 -1,2 0,1 0,2 1,3 1,1 1,1 2,1 1,0 2,0 2,-1zm-16 -22l-2 1 -4 -6 5 -3c1,0 2,1 3,2 1,1 2,2 2,3 1,1 1,3 1,4 0,2 0,3 -1,4 -1,1 -2,2 -3,3 -1,1 -3,1 -4,2 -2,0 -3,0 -4,-1 -1,-1 -2,-2 -3,-3 -1,-1 -1,-2 -1,-3 0,-1 0,-2 0,-3 0,-1 1,-2 2,-3l1 1c-1,1 -1,1 -1,2 0,1 0,1 0,2 0,1 0,1 1,2 1,1 1,2 2,2 1,0 1,1 2,1 1,0 1,0 2,0 1,0 2,-1 3,-1 1,-1 2,-2 3,-3 1,-1 1,-2 1,-3 0,-1 0,-2 -1,-3 0,-1 -1,-2 -2,-2 -1,-1 -1,-1 -2,-1l-3 2 3 4zm1 -13l-15 6 -1 -2 15 -6 1 2zm-7 -2c-2,1 -4,0 -5,0 -1,-1 -2,-2 -2,-3 0,-2 0,-3 0,-4 1,-1 2,-2 4,-3 1,0 3,-1 4,0 1,0 2,1 2,1 1,1 1,2 1,3 0,2 0,3 0,4 -1,1 -2,2 -4,3zm-1 -2c1,0 2,-1 3,-2 1,-1 1,-2 0,-3 0,-1 -1,-2 -2,-2 -1,0 -2,0 -4,0 -1,0 -2,1 -3,2 -1,1 -1,2 0,3 0,1 1,2 2,2 1,0 2,0 4,0zm3 -15l0 2 -16 2 0 -2 6 -1c-1,-1 -2,-2 -2,-3 0,-1 0,-1 0,-2 0,-1 1,-1 1,-2 0,0 1,-1 2,-1 1,0 1,-1 2,-1 2,0 4,0 5,1 1,1 2,2 2,3 0,1 0,3 -1,4l1 0zm-6 1c1,0 2,-1 3,-1 1,-1 1,-2 1,-3 0,-1 -1,-2 -1,-2 -1,-1 -2,-1 -3,-1 -2,0 -3,1 -3,1 -1,1 -1,2 -1,2 0,1 1,2 1,2 1,1 2,1 3,1zm4 -20c1,1 1,2 1,2 0,1 0,1 0,2 0,1 0,2 -1,3 -1,1 -1,1 -2,1 -1,0 -1,0 -2,0 0,0 -1,-1 -1,-1 0,0 0,-1 -1,-2 0,0 0,-1 0,-2 0,-2 0,-3 0,-4 0,0 0,0 -1,0 -1,0 -1,0 -2,0 0,0 -1,1 -1,2 0,1 0,2 0,2 0,0 1,1 2,1l0 2c-1,0 -1,-1 -2,-1 0,0 -1,-1 -1,-2 0,-1 0,-2 0,-3 0,-1 0,-2 0,-2 0,-1 1,-1 1,-1 0,0 1,0 1,-1 0,0 1,0 2,0l3 0c2,0 3,0 3,0 0,0 1,0 1,0l0 2c0,0 -1,0 -1,0zm-4 0c0,1 0,2 1,3 0,1 0,1 0,2 0,0 0,1 1,1 0,0 1,0 1,0 1,0 1,0 1,-1 0,0 1,-1 1,-2 0,-1 0,-1 0,-2 0,-1 -1,-1 -1,-1 0,0 -1,0 -2,0l-1 0zm6 -5l-16 -2 0 -2 16 2 0 2zm2 -12l-15 -5 1 -2 15 5 -1 2zm2 -6l-11 -5 1 -2 2 1c-1,-1 -1,-3 0,-4 0,-1 1,-1 1,-2 0,0 1,-1 1,-1 0,0 1,0 2,0 0,0 1,0 2,1l7 3 -1 2 -7 -3c-1,0 -1,-1 -2,-1 0,0 -1,0 -1,0 0,0 -1,1 -1,1 0,1 0,2 0,2 0,1 1,1 2,2l6 3 -1 2zm2 -13l1 -2c1,0 1,0 2,0 1,0 1,-1 2,-2 0,-1 1,-2 1,-2 0,-1 0,-1 -1,-1 0,0 -1,0 -1,0 0,0 -1,1 -2,1 -1,1 -2,2 -2,2 -1,0 -1,1 -2,1 -1,0 -1,0 -2,0 0,0 -1,-1 -1,-1 0,0 0,-1 0,-1 0,0 0,-1 0,-1 0,-1 0,-1 1,-2 0,-1 1,-1 2,-2 1,0 1,-1 2,-1 1,0 1,0 2,0l-1 2c-1,0 -1,0 -2,0 -1,0 -1,1 -1,1 0,1 -1,1 -1,2 0,1 0,1 1,1 0,0 0,0 1,0 0,0 1,0 1,0 0,0 1,-1 1,-1 1,-1 2,-2 2,-2 0,0 1,-1 2,-1 1,0 1,0 2,0 1,0 1,1 1,2 0,1 0,1 0,2 0,1 0,2 -1,2 -1,1 -2,2 -3,3 -1,0 -2,0 -3,0zm11 -13l2 1c0,1 0,1 -1,1 0,1 -1,1 -1,1 0,0 -1,0 -1,0 0,0 -1,0 -2,-1l-5 -4 -1 1 -1 -1 1 -1 -2 -2 0 -2 3 2 1 -2 1 1 -1 2 6 4c0,0 1,1 1,1 0,0 0,0 1,0 0,0 0,0 1,0 0,0 0,0 0,-1zm-7 -10l-2 -2 1 -1 2 2 -1 1zm10 10l-9 -8 1 -1 9 8 -1 1zm5 -8l1 1c0,0 -1,1 -1,1 -1,1 -1,1 -1,1 0,0 -1,0 -1,0 0,0 -1,-1 -2,-2l-5 -5 -1 1 -1 -1 1 -1 -2 -2 1 -2 3 3 1 -1 1 1 -1 1 5 5c0,0 1,1 1,1 0,0 0,0 1,0 0,0 0,0 1,0 0,0 0,0 1,-1zm9 -5l-1 -1c0,2 0,3 -2,4 -1,0 -1,1 -2,1 -1,0 -1,0 -2,0 0,0 -1,0 -1,-1 0,0 -1,-1 -1,-1l-5 -6 2 -1 4 5c1,1 1,1 1,2 0,0 1,0 1,0 1,0 1,0 1,-1 0,0 1,-1 1,-1 0,-1 0,-1 0,-2 0,-1 -1,-1 -1,-2l-4 -5 2 -1 7 9 -1 1zm7 -7l1 1c0,0 -1,1 -1,1 -1,0 -1,1 -2,1 0,0 -1,0 -1,0 0,0 -1,-1 -1,-2l-3 -6 -1 1 -1 -1 1 -1 -1 -3 1 -2 2 4 2 -1 1 1 -2 1 4 6c0,1 1,1 1,1 0,0 0,0 0,0 0,0 0,0 1,0 0,0 0,0 1,-1zm8 -7l2 -1c0,1 0,2 0,3 -1,1 -1,2 -3,2 -2,1 -3,1 -4,0 -1,-1 -2,-2 -3,-3 -1,-2 -1,-3 -1,-5 0,-1 1,-3 3,-3 1,-1 3,-1 4,0 1,1 2,2 3,4 0,0 0,0 0,1l-8 4c1,1 1,2 2,2 1,0 2,0 3,0 1,0 1,-1 1,-1 0,-1 0,-1 0,-2zm-7 0l6 -3c0,-1 -1,-1 -2,-2 -1,0 -2,0 -3,0 -1,0 -1,1 -2,2 0,1 0,2 0,3zm17 -6c0,-2 0,-4 1,-5 1,-1 2,-2 3,-2 2,0 3,0 4,1 1,1 2,2 2,4 0,2 0,3 0,4 0,1 -1,2 -2,2 -1,1 -2,1 -3,1 -2,0 -3,0 -4,-1 -1,-1 -2,-2 -2,-4zm2 0c0,2 1,3 2,3 1,1 2,1 3,1 1,0 2,-1 2,-2 0,-1 1,-2 0,-4 0,-1 -1,-3 -2,-3 -1,-1 -2,-1 -3,-1 -1,0 -2,1 -2,2 -1,1 -1,2 0,4zm13 4l-1 -10 -2 0 0 -2 2 0 0 -1c0,-1 0,-1 0,-2 0,-1 0,-1 1,-1 0,0 1,-1 2,-1 1,0 1,0 2,0l0 2c0,0 -1,0 -1,0 -1,0 -1,0 -1,1 0,0 0,1 0,2l0 1 2 0 0 2 -2 0 1 10 -2 0zm13 -1l0 -17 2 0 0 17 -2 0zm6 0l1 -12 2 0 0 2c1,-1 2,-2 4,-2 1,0 1,0 2,1 1,0 1,1 1,1 0,0 0,1 0,2 0,0 0,1 0,2l-1 7 -2 0 1 -7c0,-1 0,-1 0,-2 0,0 0,-1 -1,-1 0,0 -1,0 -1,-1 -1,0 -2,0 -2,1 -1,0 -1,1 -1,3l-1 7 -2 0zm13 2l2 -10 -2 0 0 -2 2 0 0 -1c0,-1 0,-1 1,-2 0,0 1,-1 1,-1 1,0 1,0 2,0 1,0 1,0 2,1l-1 2c0,0 -1,0 -1,0 -1,0 -1,0 -1,0 0,0 -1,1 -1,1l0 1 2 0 0 2 -2 0 -2 10 -2 0zm7 -5c1,-2 2,-4 3,-4 1,-1 3,-1 4,0 2,0 3,1 3,3 1,1 1,3 0,5 0,1 -1,3 -2,3 -1,1 -2,1 -2,1 -1,0 -2,0 -3,0 -2,0 -3,-1 -3,-3 -1,-1 -1,-3 0,-5zm2 1c0,1 0,3 0,4 0,1 1,2 2,2 1,0 2,0 3,0 1,-1 1,-2 2,-3 0,-1 0,-3 0,-4 0,-1 -1,-2 -2,-2 -1,0 -2,0 -3,0 -1,1 -1,2 -2,3zm9 9l5 -11 2 1 -1 2c1,-1 1,-1 2,-1 0,0 1,0 1,0 1,0 1,1 2,1l-1 1c0,0 -1,-1 -1,-1 0,0 -1,0 -1,0 0,0 -1,0 -1,1 0,1 -1,1 -1,2l-2 6 -2 -1zm7 3l6 -10 1 1 -1 1c1,0 1,0 2,0 1,0 1,0 2,1 1,0 1,1 1,2 0,1 0,1 0,2 2,-1 3,-1 4,0 1,1 2,1 2,2 0,1 0,2 -1,3l-4 7 -2 -1 4 -6c0,-1 1,-1 1,-2 0,0 0,-1 0,-1 0,0 0,-1 -1,-1 -1,0 -1,-1 -2,0 -1,0 -1,1 -2,2l-4 6 -2 -1 4 -7c0,-1 1,-1 1,-2 0,-1 0,-1 -1,-1 0,0 -1,0 -2,0 -1,0 -1,0 -2,1 0,0 -1,1 -2,2l-3 5 -2 -1zm22 15c-1,0 -2,0 -2,0 -1,0 -1,-1 -2,-1 -1,-1 -1,-2 -2,-3 0,-1 0,-2 1,-3 0,0 1,-1 1,-1 1,0 1,0 2,0 1,0 1,0 1,0 0,0 1,1 2,1 1,1 2,2 3,2 0,0 0,0 0,0 1,-1 1,-1 1,-2 0,-1 0,-1 -1,-2 -1,-1 -1,-1 -2,-1 -1,0 -1,0 -2,1l-1 -2c1,-1 1,-1 2,-1 1,0 1,0 2,0 1,0 2,1 2,2 1,1 1,1 2,2 0,1 0,1 0,2 0,0 0,1 0,1 0,0 -1,1 -1,1l-2 2c-1,1 -2,2 -2,3 0,0 0,1 -1,1l-2 -1c0,0 0,-1 1,-1zm3 -4c-1,0 -2,-1 -3,-2 -1,0 -1,-1 -2,-1 0,0 -1,0 -1,0 0,0 -1,0 -1,1 0,0 0,1 0,1 0,1 0,1 1,2 1,1 1,1 2,1 1,0 1,0 2,0 0,0 1,-1 2,-1l0 -1zm4 11l-1 1c0,0 -1,-1 -1,-1 0,-1 -1,-1 -1,-2 0,0 0,-1 0,-1 0,0 1,-1 2,-2l5 -4 -1 -1 1 -1 1 1 2 -2 2 1 -3 3 1 2 -1 1 -1 -2 -5 5c0,0 -1,1 -1,1 0,0 0,0 0,1 0,0 0,0 0,1 0,0 0,0 1,1zm11 -6l2 -1 1 2 -2 1 -1 -2zm-11 9l9 -7 1 2 -9 7 -1 -2zm8 0c2,-1 4,-2 5,-1 1,0 2,1 3,3 1,1 1,3 1,4 0,1 -1,3 -3,4 -1,1 -2,1 -3,1 -1,0 -2,0 -3,-1 -1,0 -2,-1 -2,-2 -1,-1 -1,-3 -1,-4 0,-1 1,-3 3,-4zm1 2c-1,1 -2,2 -2,3 0,1 0,2 0,3 1,1 1,1 2,2 1,0 2,0 3,-1 1,-1 2,-2 2,-3 0,-1 0,-2 0,-3 -1,-1 -1,-1 -2,-2 -1,0 -2,0 -3,1zm1 13l11 -5 1 2 -2 1c2,0 3,1 3,3 0,1 0,1 0,2 0,1 0,1 0,2 0,0 -1,1 -1,1 0,0 -1,1 -2,1l-7 3 -1 -2 7 -3c1,0 1,-1 2,-1 0,0 0,-1 1,-1 0,0 0,-1 0,-1 0,-1 -1,-1 -2,-2 -1,0 -2,0 -3,0l-6 3 -1 -2zm6 22l14 -2 -1 -5 2 0 2 13 -2 0 -1 -5 -14 2 0 -2zm5 15l0 2c-1,0 -2,-1 -3,-2 -1,-1 -1,-2 -1,-3 0,-2 0,-3 1,-4 1,-1 2,-2 4,-2 2,0 4,0 5,1 1,1 2,2 2,4 0,2 0,3 -1,4 -1,1 -2,2 -4,2 0,0 0,0 -1,0l0 -9c-1,0 -2,1 -3,1 -1,1 -1,2 -1,3 0,1 0,1 1,2 0,1 1,1 2,1zm3 -7l0 7c1,0 2,0 2,-1 1,-1 1,-2 1,-3 0,-1 0,-2 -1,-2 -1,-1 -1,-1 -2,-1zm-4 20l0 2c-1,0 -2,-1 -3,-2 -1,-1 -1,-2 -1,-3 0,-2 1,-3 2,-4 1,-1 3,-1 5,-1 1,0 2,0 3,1 1,1 2,1 2,2 0,1 1,2 0,3 0,1 -1,2 -1,3 -1,1 -2,1 -3,1l0 -2c1,0 1,0 2,-1 0,0 1,-1 1,-2 0,-1 0,-2 -1,-3 -1,-1 -2,-1 -3,-1 -2,0 -3,0 -4,1 -1,1 -1,1 -1,2 0,1 0,1 1,2 0,1 1,1 2,1zm-5 3l16 5 -1 2 -6 -2c1,1 1,3 1,4 0,1 -1,2 -1,2 -1,1 -1,1 -2,1 -1,0 -2,0 -3,0l-7 -2 1 -2 7 2c1,0 2,0 2,0 1,0 1,-1 1,-2 0,-1 0,-1 0,-2 0,-1 0,-1 -1,-1 0,0 -1,-1 -2,-1l-6 -2 1 -2zm-4 12l11 5 -1 2 -1 -1c1,1 1,3 0,4 0,1 -1,1 -1,2 0,0 -1,1 -1,1 -1,0 -1,0 -2,0 0,0 -1,0 -2,-1l-6 -3 1 -2 6 3c1,0 1,1 2,1 0,0 1,0 1,0 0,0 1,-1 1,-1 0,-1 0,-2 0,-2 0,-1 -1,-2 -2,-2l-6 -3 1 -2zm0 14c2,1 3,3 3,4 0,1 0,3 -1,4 -1,1 -2,2 -4,2 -1,0 -3,0 -4,-1 -1,-1 -2,-2 -3,-3 0,-1 -1,-2 -1,-3 0,-1 0,-2 1,-3 1,-1 2,-2 4,-2 1,0 3,0 5,1zm-1 2c-1,-1 -2,-1 -3,-1 -1,0 -2,1 -2,1 -1,1 -1,2 0,3 0,1 1,2 2,3 1,1 2,1 3,1 1,0 2,-1 2,-1 1,-1 1,-2 0,-3 0,-1 -1,-2 -2,-3zm-11 6l12 11 -1 2 -12 -11 1 -2zm1 8c2,2 2,3 2,5 0,1 -1,3 -2,4 -1,1 -2,2 -4,2 -1,0 -3,-1 -4,-2 -1,-1 -2,-2 -2,-3 0,-1 0,-2 0,-3 0,-1 1,-2 1,-3 1,-1 2,-2 4,-2 1,0 3,1 4,2zm-1 1c-1,-1 -2,-2 -3,-2 -1,0 -2,0 -3,1 -1,1 -1,2 -1,3 0,1 1,2 2,3 1,1 2,2 3,2 1,0 2,0 3,-1 1,-1 1,-2 1,-3 0,-1 -1,-2 -2,-3zm-13 2l-2 1c0,0 -1,-1 -1,-1 -1,0 -1,0 -2,1 -1,1 -1,1 -1,2 0,1 0,1 0,2 0,0 1,1 1,2 0,-1 1,-2 2,-3 1,-1 3,-1 4,-1 1,0 3,1 4,3 1,1 1,2 1,3 0,1 0,2 0,3 0,1 -1,2 -2,2 -1,1 -2,1 -4,1l1 1 -1 1 -6 -8c-1,-1 -2,-3 -2,-4 0,-1 0,-2 0,-3 0,-1 1,-2 2,-2 1,-1 2,-1 3,-1 1,0 2,1 3,2zm3 7c-1,-1 -2,-2 -3,-2 -1,0 -2,0 -2,1 -1,1 -1,1 -1,2 0,1 0,2 1,3 1,1 2,2 3,2 1,0 2,0 2,-1 1,-1 1,-1 1,-2 0,-1 0,-2 -1,-3zm-15 -3l1 2c0,0 -1,0 -1,0 0,0 -1,0 -1,1 0,0 0,1 0,1 0,0 0,1 0,2 0,0 0,0 0,1l10 8 -2 1 -5 -5c-1,-1 -1,-1 -2,-2 0,1 0,2 1,3l1 7 -2 1 -2 -13c0,-1 0,-2 0,-3 0,-1 0,-1 0,-2 0,-1 1,-1 1,-1 0,0 1,0 1,0z"/>
   </g>
   <polygon class="fil1" points="0,504 18,504 18,510 6,510 6,516 18,516 18,522 6,522 6,531 18,531 18,537 0,537 "/>
   <path id="1" class="fil1" d="M42 503l6 0 0 34 -6 0 0 -3c-1,1 -2,2 -4,2 -1,1 -3,1 -4,1 -3,0 -6,-1 -8,-4 -2,-2 -3,-6 -3,-9 0,-4 1,-7 3,-9 2,-2 5,-4 8,-4 1,0 3,0 4,1 1,1 3,1 4,2l0 -12zm-7 15c-2,0 -4,1 -5,2 -1,1 -2,3 -2,5 0,2 1,4 2,5 1,1 3,2 5,2 2,0 4,-1 5,-2 1,-1 2,-3 2,-5 0,-2 -1,-4 -2,-5 -1,-1 -3,-2 -5,-2z"/>
   <path id="2" class="fil1" d="M54 513l6 0 0 12c0,2 0,4 0,5 0,1 1,2 2,2 1,0 2,1 3,1 1,0 2,0 3,-1 1,0 1,-1 2,-2 0,-1 0,-2 0,-5l0 -12 6 0 0 10c0,4 0,7 -1,9 -1,2 -2,3 -4,4 -2,1 -4,2 -6,2 -3,0 -5,-1 -7,-2 -2,-1 -3,-3 -4,-5 0,-1 -1,-4 -1,-8l0 -10z"/>
   <path id="3" class="fil1" d="M106 518l-5 3c-1,-1 -2,-2 -3,-2 -1,0 -2,-1 -3,-1 -2,0 -4,1 -6,2 -1,1 -2,3 -2,5 0,2 1,4 2,5 1,1 3,2 5,2 3,0 5,-1 6,-3l5 3c-3,3 -6,5 -11,5 -4,0 -8,-1 -10,-4 -2,-3 -4,-6 -4,-9 0,-2 1,-5 2,-7 1,-2 3,-4 5,-5 2,-1 5,-2 7,-2 2,0 5,0 7,1 2,1 4,2 5,4z"/>
   <path id="4" class="fil1" d="M130 513l6 0 0 25 -6 0 0 -3c-1,1 -2,2 -4,2 -1,1 -3,1 -4,1 -3,0 -6,-1 -8,-4 -2,-2 -3,-6 -3,-9 0,-4 1,-7 3,-9 2,-2 5,-4 8,-4 1,0 3,0 4,1 1,1 3,1 4,2l0 -3zm-7 5c-2,0 -4,1 -5,2 -1,1 -2,3 -2,5 0,2 1,4 2,5 1,1 3,2 5,2 2,0 4,-1 5,-2 1,-1 2,-3 2,-5 0,-2 -1,-4 -2,-5 -1,-1 -3,-2 -5,-2z"/>
   <polygon id="5" class="fil1" points="143,504 149,504 149,513 153,513 153,518 149,518 149,537 143,537 143,518 140,518 140,513 143,513 "/>
   <path id="6" class="fil1" d="M159 503c1,0 2,0 3,1 1,1 1,2 1,3 0,1 0,2 -1,3 -1,1 -2,1 -3,1 -1,0 -2,0 -3,-1 -1,-1 -1,-2 -1,-3 0,-1 0,-2 1,-3 1,-1 2,-1 3,-1zm-3 10l6 0 0 25 -6 0 0 -25z"/>
   <path id="7" class="fil1" d="M179 512c2,0 5,1 7,2 2,1 4,3 5,5 1,2 2,4 2,6 0,2 -1,4 -2,7 -1,2 -3,4 -5,5 -2,1 -4,2 -7,2 -4,0 -7,-1 -9,-4 -3,-3 -4,-6 -4,-9 0,-4 1,-7 4,-10 2,-2 5,-3 9,-3zm0 6c-2,0 -4,1 -5,2 -1,1 -2,3 -2,5 0,2 1,4 2,5 1,1 3,2 5,2 2,0 4,-1 5,-2 1,-1 2,-3 2,-5 0,-2 -1,-4 -2,-5 -1,-1 -3,-2 -5,-2z"/>
   <path id="8" class="fil1" d="M197 513l6 0 0 3c1,-1 3,-2 4,-2 1,0 2,-1 3,-1 2,0 5,1 6,3 1,1 2,4 2,6l0 16 -6 0 0 -11c0,-3 0,-5 0,-6 0,-1 -1,-2 -1,-2 -1,-1 -1,-1 -2,-1 -1,0 -2,0 -3,1 -1,1 -2,2 -2,3 0,1 0,2 0,5l0 10 -6 0 0 -25z"/>
   <path id="9" class="fil1" d="M256 513l6 0 0 25 -6 0 0 -3c-1,1 -2,2 -4,2 -1,1 -3,1 -4,1 -3,0 -6,-1 -8,-4 -2,-2 -3,-6 -3,-9 0,-4 1,-7 3,-9 2,-2 5,-4 8,-4 1,0 3,0 4,1 1,1 3,1 4,2l0 -3zm-7 5c-2,0 -4,1 -5,2 -1,1 -2,3 -2,5 0,2 1,4 2,5 1,1 3,2 5,2 2,0 4,-1 5,-2 1,-1 2,-3 2,-5 0,-2 -1,-4 -2,-5 -1,-1 -3,-2 -5,-2z"/>
   <polygon id="10" class="fil1" points="269,504 275,504 275,513 279,513 279,518 275,518 275,537 269,537 269,518 266,518 266,513 269,513 "/>
   <polygon id="11" class="fil1" points="293,513 299,513 305,528 312,513 319,513 303,546 297,546 302,536 "/>
   <path id="12" class="fil1" d="M334 512c2,0 5,1 7,2 2,1 4,3 5,5 1,2 2,4 2,6 0,2 -1,4 -2,7 -1,2 -3,4 -5,5 -2,1 -4,2 -7,2 -4,0 -7,-1 -9,-4 -3,-3 -4,-6 -4,-9 0,-4 1,-7 4,-10 2,-2 5,-3 9,-3zm0 6c-2,0 -4,1 -5,2 -1,1 -2,3 -2,5 0,2 1,4 2,5 1,1 3,2 5,2 2,0 4,-1 5,-2 1,-1 2,-3 2,-5 0,-2 -1,-4 -2,-5 -1,-1 -3,-2 -5,-2z"/>
   <path id="13" class="fil1" d="M352 513l6 0 0 12c0,2 0,4 0,5 0,1 1,2 2,2 1,0 2,1 3,1 1,0 2,0 3,-1 1,0 1,-1 2,-2 0,-1 0,-2 0,-5l0 -12 6 0 0 10c0,4 0,7 -1,9 -1,2 -2,3 -4,4 -2,1 -4,2 -6,2 -3,0 -5,-1 -7,-2 -2,-1 -3,-3 -4,-5 0,-1 -1,-4 -1,-8l0 -10z"/>
   <path id="14" class="fil1" d="M378 513l5 0 0 3c1,-1 1,-2 2,-3 1,-1 2,-1 3,-1 1,0 2,0 3,1l-2 5c-1,0 -1,-1 -2,-1 -1,0 -2,1 -2,2 -1,1 -1,3 -1,7l0 1 0 10 -6 0 0 -25z"/>
   <path id="15" class="fil1" d="M408 504l8 0c5,0 8,1 11,2 2,1 4,3 6,6 2,3 2,6 2,9 0,3 0,5 -1,7 -1,2 -2,4 -4,5 -2,1 -3,2 -5,3 -2,1 -5,1 -9,1l-8 0 0 -33zm6 6l0 21 3 0c3,0 5,0 6,-1 1,-1 2,-2 3,-3 1,-2 1,-4 1,-6 0,-4 -1,-6 -3,-8 -2,-2 -5,-3 -9,-3l-2 0z"/>
   <path id="16" class="fil1" d="M452 512c2,0 5,1 7,2 2,1 4,3 5,5 1,2 2,4 2,6 0,2 -1,4 -2,7 -1,2 -3,4 -5,5 -2,1 -4,2 -7,2 -4,0 -7,-1 -9,-4 -3,-3 -4,-6 -4,-9 0,-4 1,-7 4,-10 2,-2 5,-3 9,-3zm0 6c-2,0 -4,1 -5,2 -1,1 -2,3 -2,5 0,2 1,4 2,5 1,1 3,2 5,2 2,0 4,-1 5,-2 1,-1 2,-3 2,-5 0,-2 -1,-4 -2,-5 -1,-1 -3,-2 -5,-2z"/>
   <path id="17" class="fil1" d="M481 512c2,0 5,1 7,2 2,1 4,3 5,5 1,2 2,4 2,6 0,2 -1,4 -2,7 -1,2 -3,4 -5,5 -2,1 -4,2 -7,2 -4,0 -7,-1 -9,-4 -3,-3 -4,-6 -4,-9 0,-4 1,-7 4,-10 2,-2 5,-3 9,-3zm0 6c-2,0 -4,1 -5,2 -1,1 -2,3 -2,5 0,2 1,4 2,5 1,1 3,2 5,2 2,0 4,-1 5,-2 1,-1 2,-3 2,-5 0,-2 -1,-4 -2,-5 -1,-1 -3,-2 -5,-2z"/>
   <path id="18" class="fil1" d="M498 513l5 0 0 3c1,-1 1,-2 2,-3 1,-1 2,-1 3,-1 1,0 2,0 3,1l-2 5c-1,0 -1,-1 -2,-1 -1,0 -2,1 -2,2 -1,1 -1,3 -1,7l0 1 0 10 -6 0 0 -25z"/>
  </g>
 </g>
</svg>
